<mxfile host="app.diagrams.net" modified="2021-11-17T01:27:56.709Z" agent="5.0 (Windows NT 10.0; Win64; x64) AppleWebKit/537.36 (KHTML, like Gecko) Chrome/95.0.4638.69 Safari/537.36" etag="TlI9Qm2rG16FawmvCaZS" version="15.7.3" type="github">
  <diagram id="S6Xp7P4mLaGpEuK_jHzz" name="Page-1">
    <mxGraphModel dx="1038" dy="547" grid="1" gridSize="10" guides="1" tooltips="1" connect="1" arrows="1" fold="1" page="1" pageScale="1" pageWidth="827" pageHeight="1169" math="0" shadow="0">
      <root>
        <mxCell id="0" />
        <mxCell id="1" parent="0" />
        <UserObject label="" lucidchartObjectId="6uSl6x.-jzbq" id="ir8znV33I6Ru14xV_uGy-1">
          <mxCell style="html=1;jettySize=18;whiteSpace=wrap;overflow=block;blockSpacing=1;fontSize=13;strokeColor=#5E5E5E;strokeWidth=1.5;rounded=1;arcSize=12;edgeStyle=orthogonalEdgeStyle;startArrow=none;;endArrow=block;endFill=1;;exitY=0;exitPerimeter=0;entryY=0;entryPerimeter=0;" parent="1" source="ir8znV33I6Ru14xV_uGy-18" target="ir8znV33I6Ru14xV_uGy-18" edge="1">
            <mxGeometry width="100" height="100" relative="1" as="geometry">
              <Array as="points">
                <mxPoint x="521" y="40" generated="1" />
                <mxPoint x="521" y="40" generated="1" />
              </Array>
            </mxGeometry>
          </mxCell>
        </UserObject>
        <mxCell id="ir8znV33I6Ru14xV_uGy-2" value="" style="group;dropTarget=0;" parent="1" vertex="1">
          <mxGeometry x="278" y="550" width="585" height="241" as="geometry" />
        </mxCell>
        <UserObject label="&lt;div style=&quot;display: flex ; justify-content: flex-start ; align-items: baseline ; font-size: 0px ; line-height: 1.25 ; margin-top: -2px&quot;&gt;&lt;span&gt;&lt;div style=&quot;color: rgb(225 , 225 , 230) ; background-color: rgb(25 , 22 , 34) ; font-family: &amp;#34;cascadia mono&amp;#34; , &amp;#34;consolas&amp;#34; , &amp;#34;courier new&amp;#34; , monospace ; font-size: 16.5px ; line-height: 22px&quot;&gt;&lt;div style=&quot;font-family: &amp;#34;cascadia mono&amp;#34; , &amp;#34;consolas&amp;#34; , &amp;#34;courier new&amp;#34; , monospace ; line-height: 22px&quot;&gt;&lt;div style=&quot;line-height: 22px&quot;&gt;&lt;div style=&quot;line-height: 22px&quot;&gt;&lt;div style=&quot;line-height: 22px&quot;&gt;&lt;div style=&quot;line-height: 22px&quot;&gt;&lt;div style=&quot;font-family: &amp;#34;cascadia mono&amp;#34; , &amp;#34;consolas&amp;#34; , &amp;#34;courier new&amp;#34; , monospace ; line-height: 22px&quot;&gt;&lt;div&gt;&amp;nbsp; &lt;span style=&quot;color: #ff79c6&quot;&gt;private&lt;/span&gt; &lt;span style=&quot;color: #988bc7 ; font-style: italic&quot;&gt;String&lt;/span&gt; cor&lt;span style=&quot;color: #ff79c6&quot;&gt;;&lt;/span&gt;&lt;/div&gt;&lt;div&gt;&amp;nbsp; &lt;span style=&quot;color: #ff79c6&quot;&gt;private&lt;/span&gt; &lt;span style=&quot;color: #ff79c6&quot;&gt;float&lt;/span&gt; tamanho&lt;span style=&quot;color: #ff79c6&quot;&gt;;&lt;/span&gt;&lt;/div&gt;&lt;div&gt;&lt;div style=&quot;font-family: &amp;#34;cascadia mono&amp;#34; , &amp;#34;consolas&amp;#34; , &amp;#34;courier new&amp;#34; , monospace ; line-height: 22px&quot;&gt;&lt;div&gt;&amp;nbsp; &lt;span style=&quot;color: #5a4b81&quot;&gt;// get and Sets&lt;/span&gt;&lt;/div&gt;&lt;div&gt;&lt;/div&gt;&lt;/div&gt;&lt;/div&gt;&lt;div&gt;&lt;div style=&quot;font-family: &amp;#34;cascadia mono&amp;#34; , &amp;#34;consolas&amp;#34; , &amp;#34;courier new&amp;#34; , monospace ; line-height: 22px&quot;&gt;&amp;nbsp;&lt;span style=&quot;color: #ff79c6&quot;&gt;public&lt;/span&gt; &lt;span style=&quot;color: #ff79c6&quot;&gt;void&lt;/span&gt; &lt;span style=&quot;color: #67e480&quot;&gt;tamanhoAumento&lt;/span&gt;(&lt;span style=&quot;color: #ff79c6&quot;&gt;float&lt;/span&gt; aum)&lt;/div&gt;&lt;/div&gt;&lt;div style=&quot;font-family: &amp;#34;cascadia mono&amp;#34; , &amp;#34;consolas&amp;#34; , &amp;#34;courier new&amp;#34; , monospace ; line-height: 22px&quot;&gt;&lt;div style=&quot;font-family: &amp;#34;cascadia mono&amp;#34; , &amp;#34;consolas&amp;#34; , &amp;#34;courier new&amp;#34; , monospace ; line-height: 22px&quot;&gt;&lt;span style=&quot;color: #ff79c6&quot;&gt;&amp;nbsp;public&lt;/span&gt; &lt;span style=&quot;color: #67e480&quot;&gt;Rosa&lt;/span&gt;(&lt;span style=&quot;color: #988bc7 ; font-style: italic&quot;&gt;String&lt;/span&gt; cor&lt;span style=&quot;color: #ff79c6&quot;&gt;,&lt;/span&gt; &lt;span style=&quot;color: #ff79c6&quot;&gt;float&lt;/span&gt; tamanho&lt;span style=&quot;color: #ff79c6&quot;&gt;,&lt;/span&gt; &lt;span style=&quot;color: #988bc7 ; font-style: italic&quot;&gt;String&lt;/span&gt; nome&lt;span style=&quot;color: #ff79c6&quot;&gt;,&lt;/span&gt; &lt;span style=&quot;color: #ff79c6&quot;&gt;int&lt;/span&gt; idade)&lt;/div&gt;&lt;/div&gt;&lt;div&gt;&lt;span style=&quot;color: #ff79c6&quot;&gt;&lt;br&gt;&lt;/span&gt;&lt;/div&gt;&lt;/div&gt;&lt;/div&gt;&lt;/div&gt;&lt;/div&gt;&lt;/div&gt;&lt;/div&gt;&lt;/div&gt;&lt;/span&gt;&lt;/div&gt;" lucidchartObjectId="TqZ6~~qpHvjc" id="ir8znV33I6Ru14xV_uGy-3">
          <mxCell style="html=1;overflow=block;blockSpacing=1;whiteSpace=wrap;;whiteSpace=wrap;fontSize=13;fontFamily=Helvetica;spacing=3.8;verticalAlign=middle;strokeOpacity=0;fillOpacity=100;rounded=1;absoluteArcSize=1;arcSize=12;fillColor=#191621;strokeWidth=1.5;align=left;" parent="ir8znV33I6Ru14xV_uGy-2" vertex="1">
            <mxGeometry y="22" width="585" height="219" as="geometry" />
          </mxCell>
        </UserObject>
        <UserObject label="&lt;div style=&quot;display: flex ; justify-content: center ; text-align: center ; align-items: baseline ; line-height: 1.25 ; margin-top: -2px&quot;&gt;&lt;span style=&quot;font-size: 16.5px ; color: rgb(255 , 121 , 198)&quot;&gt;public&lt;/span&gt;&lt;span style=&quot;font-size: 16.5px ; color: rgb(225 , 225 , 230)&quot;&gt; &lt;/span&gt;&lt;span style=&quot;font-size: 16.5px ; color: rgb(255 , 121 , 198)&quot;&gt;class&lt;/span&gt;&lt;span style=&quot;font-size: 16.5px ; color: rgb(225 , 225 , 230)&quot;&gt;&amp;nbsp;&lt;/span&gt;&lt;span&gt;&lt;span style=&quot;font-size: 16.5px&quot;&gt;&lt;i style=&quot;color: rgb(152 , 139 , 199)&quot;&gt;Rosa&amp;nbsp;&lt;/i&gt;&lt;font color=&quot;#ff79c6&quot;&gt;extends&amp;nbsp;&lt;/font&gt;&lt;/span&gt;&lt;i style=&quot;font-size: 16.5px ; color: rgb(152 , 139 , 199)&quot;&gt;Planta&lt;/i&gt;&lt;/span&gt;&lt;/div&gt;" lucidchartObjectId=".FTl3qEEFbgZ" id="ir8znV33I6Ru14xV_uGy-4">
          <mxCell style="html=1;overflow=block;blockSpacing=1;whiteSpace=wrap;;whiteSpace=wrap;fontSize=13;spacing=3.8;strokeColor=#5e5e5e;strokeOpacity=100;rounded=1;absoluteArcSize=1;arcSize=9;strokeWidth=2.3;" parent="ir8znV33I6Ru14xV_uGy-2" vertex="1">
            <mxGeometry width="585" height="30" as="geometry" />
          </mxCell>
        </UserObject>
        <mxCell id="ir8znV33I6Ru14xV_uGy-5" value="" style="group;dropTarget=0;" parent="1" vertex="1">
          <mxGeometry x="271" y="270" width="585" height="220" as="geometry" />
        </mxCell>
        <UserObject label="&lt;div style=&quot;display: flex ; justify-content: flex-start ; align-items: baseline ; font-size: 0px ; line-height: 1.25 ; margin-top: -2px&quot;&gt;&lt;span&gt;&lt;div style=&quot;color: rgb(225 , 225 , 230) ; background-color: rgb(25 , 22 , 34) ; font-family: &amp;#34;cascadia mono&amp;#34; , &amp;#34;consolas&amp;#34; , &amp;#34;courier new&amp;#34; , monospace ; font-size: 16.5px ; line-height: 22px&quot;&gt;&lt;div style=&quot;font-family: &amp;#34;cascadia mono&amp;#34; , &amp;#34;consolas&amp;#34; , &amp;#34;courier new&amp;#34; , monospace ; line-height: 22px&quot;&gt;&lt;div&gt;&lt;span style=&quot;color: #988bc7 ; font-style: italic&quot;&gt;Rosa&lt;/span&gt; p1 = &lt;span style=&quot;color: #ff79c6&quot;&gt;new&lt;/span&gt; &lt;span style=&quot;color: #988bc7 ; font-style: italic&quot;&gt;Rosa&lt;/span&gt;(&lt;span style=&quot;color: #e7de79&quot;&gt;&quot;Rot&quot;&lt;/span&gt;&lt;span style=&quot;color: #ff79c6&quot;&gt;,&lt;/span&gt; &lt;span style=&quot;color: #78d1e1&quot;&gt;10&lt;/span&gt;&lt;span style=&quot;color: #ff79c6&quot;&gt;,&lt;/span&gt; &lt;span style=&quot;color: #e7de79&quot;&gt;&quot;rosa&quot;&lt;/span&gt;&lt;span style=&quot;color: #ff79c6&quot;&gt;,&lt;/span&gt; &lt;span style=&quot;color: #78d1e1&quot;&gt;2&lt;/span&gt;)&lt;span style=&quot;color: #ff79c6&quot;&gt;;&lt;/span&gt;&lt;/div&gt;&lt;br&gt;&lt;div&gt;&amp;nbsp; &amp;nbsp; System.out.println(p1.getNome())&lt;span style=&quot;color: #ff79c6&quot;&gt;;&lt;/span&gt;&lt;/div&gt;&lt;div&gt;&amp;nbsp; &amp;nbsp; System.out.println(p1.toString())&lt;span style=&quot;color: #ff79c6&quot;&gt;;&lt;/span&gt;&lt;/div&gt;&lt;/div&gt;&lt;/div&gt;&lt;/span&gt;&lt;/div&gt;" lucidchartObjectId="TqZ6Tsh59g5n" id="ir8znV33I6Ru14xV_uGy-6">
          <mxCell style="html=1;overflow=block;blockSpacing=1;whiteSpace=wrap;;whiteSpace=wrap;fontSize=13;fontFamily=Helvetica;spacing=3.8;verticalAlign=middle;strokeOpacity=0;fillOpacity=100;rounded=1;absoluteArcSize=1;arcSize=12;fillColor=#191621;strokeWidth=1.5;align=left;" parent="ir8znV33I6Ru14xV_uGy-5" vertex="1">
            <mxGeometry y="12.941176470588236" width="585" height="207.05882352941177" as="geometry" />
          </mxCell>
        </UserObject>
        <UserObject label="&lt;div style=&quot;display: flex ; justify-content: center ; text-align: center ; align-items: baseline ; font-size: 0 ; line-height: 1.25 ; margin-top: -2px&quot;&gt;&lt;span&gt;&lt;span style=&quot;font-size: 16.5px ; color: #ff79c6&quot;&gt;public&lt;/span&gt;&lt;span style=&quot;font-size: 16.5px ; color: #e1e1e6&quot;&gt; &lt;/span&gt;&lt;span style=&quot;font-size: 16.5px ; color: #ff79c6&quot;&gt;class&lt;/span&gt;&lt;span style=&quot;font-size: 16.5px ; color: #e1e1e6&quot;&gt;&amp;nbsp;&lt;/span&gt;&lt;span style=&quot;font-size: 16.5px&quot;&gt;&lt;font color=&quot;#988bc7&quot;&gt;&lt;i&gt;pla&lt;/i&gt;&lt;/font&gt;&lt;/span&gt;&lt;/span&gt;&lt;/div&gt;" lucidchartObjectId="aETlxaeVG_TZ" id="ir8znV33I6Ru14xV_uGy-7">
          <mxCell style="html=1;overflow=block;blockSpacing=1;whiteSpace=wrap;;whiteSpace=wrap;fontSize=13;spacing=3.8;strokeColor=#5e5e5e;strokeOpacity=100;rounded=1;absoluteArcSize=1;arcSize=9;strokeWidth=2.3;" parent="ir8znV33I6Ru14xV_uGy-5" vertex="1">
            <mxGeometry width="585" height="25.88235294117647" as="geometry" />
          </mxCell>
        </UserObject>
        <mxCell id="ir8znV33I6Ru14xV_uGy-8" value="" style="group;dropTarget=0;" parent="1" vertex="1">
          <mxGeometry x="135" y="855" width="375" height="338" as="geometry" />
        </mxCell>
        <UserObject label="&lt;div style=&quot;color: rgb(225 , 225 , 230) ; background-color: rgb(25 , 22 , 34) ; font-family: &amp;#34;cascadia mono&amp;#34; , &amp;#34;consolas&amp;#34; , &amp;#34;courier new&amp;#34; , monospace ; font-size: 16.5px ; line-height: 22px&quot;&gt;&lt;div style=&quot;line-height: 22px&quot;&gt;&lt;div style=&quot;line-height: 22px&quot;&gt;&lt;div style=&quot;font-family: &amp;#34;cascadia mono&amp;#34; , &amp;#34;consolas&amp;#34; , &amp;#34;courier new&amp;#34; , monospace ; line-height: 22px&quot;&gt;&lt;div&gt;&amp;nbsp; &lt;span style=&quot;color: #ff79c6&quot;&gt;private&lt;/span&gt; &lt;span style=&quot;color: #988bc7 ; font-style: italic&quot;&gt;String&lt;/span&gt; nome&lt;span style=&quot;color: #ff79c6&quot;&gt;;&lt;/span&gt;&lt;/div&gt;&lt;div&gt;&amp;nbsp; &lt;span style=&quot;color: #ff79c6&quot;&gt;private&lt;/span&gt; &lt;span style=&quot;color: #ff79c6&quot;&gt;int&lt;/span&gt; idade&lt;span style=&quot;color: #ff79c6&quot;&gt;;&lt;/span&gt;&lt;/div&gt;&lt;div&gt;&amp;nbsp; &lt;span style=&quot;color: #ff79c6&quot;&gt;private&lt;/span&gt; &lt;span style=&quot;color: #988bc7 ; font-style: italic&quot;&gt;String&lt;/span&gt; sexo&lt;span style=&quot;color: #ff79c6&quot;&gt;;&lt;/span&gt;&lt;/div&gt;&lt;div&gt;&lt;div style=&quot;font-family: &amp;#34;cascadia mono&amp;#34; , &amp;#34;consolas&amp;#34; , &amp;#34;courier new&amp;#34; , monospace ; line-height: 22px&quot;&gt;&lt;div&gt;&amp;nbsp; &lt;span style=&quot;color: #5a4b81&quot;&gt;// get and Sets&lt;/span&gt;&lt;/div&gt;&lt;div&gt;&lt;/div&gt;&lt;/div&gt;&lt;/div&gt;&lt;div&gt;&lt;div style=&quot;font-family: &amp;#34;cascadia mono&amp;#34; , &amp;#34;consolas&amp;#34; , &amp;#34;courier new&amp;#34; , monospace ; line-height: 22px&quot;&gt;&lt;span style=&quot;color: #ff79c6&quot;&gt;&amp;nbsp; &amp;nbsp; public&lt;/span&gt; &lt;span style=&quot;color: #ff79c6&quot;&gt;void&lt;/span&gt; &lt;span style=&quot;color: #67e480&quot;&gt;fazerAniversario&lt;/span&gt;()&lt;/div&gt;&lt;/div&gt;&lt;/div&gt;&lt;/div&gt;&lt;/div&gt;&lt;/div&gt;" lucidchartObjectId="GLTlFRv3yNjL" id="ir8znV33I6Ru14xV_uGy-9">
          <mxCell style="html=1;overflow=block;blockSpacing=1;whiteSpace=wrap;;whiteSpace=wrap;fontSize=13;fontFamily=Helvetica;spacing=3.8;verticalAlign=middle;strokeOpacity=0;fillOpacity=100;rounded=1;absoluteArcSize=1;arcSize=12;fillColor=#191621;strokeWidth=1.5;align=left;" parent="ir8znV33I6Ru14xV_uGy-8" vertex="1">
            <mxGeometry y="15" width="375" height="323" as="geometry" />
          </mxCell>
        </UserObject>
        <UserObject label="&lt;div style=&quot;display: flex ; justify-content: center ; text-align: center ; align-items: baseline ; line-height: 1.25 ; margin-top: -2px&quot;&gt;&lt;span style=&quot;font-size: 16.5px ; color: rgb(255 , 121 , 198)&quot;&gt;public&amp;nbsp;&lt;/span&gt;&lt;span&gt;&lt;span style=&quot;color: rgb(255 , 121 , 198) ; font-size: 16.5px&quot;&gt;class&lt;/span&gt;&lt;/span&gt;&lt;span style=&quot;font-size: 16.5px ; color: rgb(225 , 225 , 230)&quot;&gt; &lt;/span&gt;&lt;span style=&quot;font-size: 16.5px ; color: rgb(152 , 139 , 199) ; font-style: italic&quot;&gt;&amp;nbsp;Planta&lt;/span&gt;&lt;/div&gt;" lucidchartObjectId="GLTlQl97uB0F" id="ir8znV33I6Ru14xV_uGy-10">
          <mxCell style="html=1;overflow=block;blockSpacing=1;whiteSpace=wrap;;whiteSpace=wrap;fontSize=13;spacing=3.8;strokeColor=#5e5e5e;strokeOpacity=100;rounded=1;absoluteArcSize=1;arcSize=9;strokeWidth=2.3;" parent="ir8znV33I6Ru14xV_uGy-8" vertex="1">
            <mxGeometry width="375" height="30" as="geometry" />
          </mxCell>
        </UserObject>
        <UserObject label="" lucidchartObjectId="GWvmRG6NlPOM" id="ir8znV33I6Ru14xV_uGy-16">
          <mxCell style="html=1;jettySize=18;whiteSpace=wrap;overflow=block;blockSpacing=1;fontSize=13;strokeColor=#5E5E5E;strokeWidth=1.5;rounded=1;arcSize=12;edgeStyle=orthogonalEdgeStyle;startArrow=none;;endArrow=block;endFill=1;;exitX=0.5;exitY=-0.037;exitPerimeter=0;entryX=0.5;entryY=1;entryPerimeter=0;" parent="1" source="ir8znV33I6Ru14xV_uGy-10" target="ir8znV33I6Ru14xV_uGy-3" edge="1">
            <mxGeometry width="100" height="100" relative="1" as="geometry">
              <Array as="points" />
            </mxGeometry>
          </mxCell>
        </UserObject>
        <UserObject label="" lucidchartObjectId="SWvmJ2chjy-5" id="ir8znV33I6Ru14xV_uGy-17">
          <mxCell style="html=1;jettySize=18;whiteSpace=wrap;overflow=block;blockSpacing=1;fontSize=13;strokeColor=#5E5E5E;strokeWidth=1.5;rounded=1;arcSize=12;edgeStyle=orthogonalEdgeStyle;startArrow=none;;endArrow=block;endFill=1;;exitX=0.5;exitY=-0.038;exitPerimeter=0;entryX=0.511;entryY=1;entryPerimeter=0;" parent="1" source="ir8znV33I6Ru14xV_uGy-4" target="ir8znV33I6Ru14xV_uGy-6" edge="1">
            <mxGeometry width="100" height="100" relative="1" as="geometry">
              <Array as="points" />
            </mxGeometry>
          </mxCell>
        </UserObject>
        <UserObject label="RESOLUÇÃO (DIAGRAMA DE CLASSES):" lucidchartObjectId="RtSlxXosGkov" id="ir8znV33I6Ru14xV_uGy-18">
          <mxCell style="html=1;overflow=block;blockSpacing=1;whiteSpace=wrap;shadow=1;whiteSpace=wrap;fontSize=18.5;spacing=3.8;strokeColor=none;fillColor=#FFECA9;strokeWidth=0;" parent="1" vertex="1">
            <mxGeometry x="450" y="60" width="248" height="137" as="geometry" />
          </mxCell>
        </UserObject>
      </root>
    </mxGraphModel>
  </diagram>
</mxfile>
